<mxfile host="app.diagrams.net" agent="Mozilla/5.0 (Windows NT 10.0; Win64; x64) AppleWebKit/537.36 (KHTML, like Gecko) Chrome/130.0.0.0 Safari/537.36" version="24.8.4">
  <diagram name="Page-1" id="2YBvvXClWsGukQMizWep">
    <mxGraphModel dx="1189" dy="906" grid="1" gridSize="10" guides="1" tooltips="1" connect="1" arrows="1" fold="1" page="1" pageScale="1" pageWidth="850" pageHeight="1100" math="0" shadow="0">
      <root>
        <mxCell id="0" />
        <mxCell id="1" parent="0" />
        <mxCell id="QT0idfkxXLzTyoDSYEQH-2" value="" style="shape=umlLifeline;perimeter=lifelinePerimeter;whiteSpace=wrap;html=1;container=1;dropTarget=0;collapsible=0;recursiveResize=0;outlineConnect=0;portConstraint=eastwest;newEdgeStyle={&quot;curved&quot;:0,&quot;rounded&quot;:0};participant=umlActor;" parent="1" vertex="1">
          <mxGeometry x="80" y="50" width="20" height="270" as="geometry" />
        </mxCell>
        <mxCell id="QT0idfkxXLzTyoDSYEQH-3" value="&lt;u&gt;:Admin&lt;/u&gt;" style="text;html=1;align=center;verticalAlign=middle;resizable=0;points=[];autosize=1;strokeColor=none;fillColor=none;" parent="1" vertex="1">
          <mxGeometry x="60" y="20" width="60" height="30" as="geometry" />
        </mxCell>
        <mxCell id="QT0idfkxXLzTyoDSYEQH-4" value="&lt;u&gt;:System&lt;/u&gt;" style="shape=umlLifeline;perimeter=lifelinePerimeter;whiteSpace=wrap;html=1;container=1;dropTarget=0;collapsible=0;recursiveResize=0;outlineConnect=0;portConstraint=eastwest;newEdgeStyle={&quot;curved&quot;:0,&quot;rounded&quot;:0};" parent="1" vertex="1">
          <mxGeometry x="420" y="60" width="100" height="270" as="geometry" />
        </mxCell>
        <mxCell id="QT0idfkxXLzTyoDSYEQH-15" value="AddOffering()" style="html=1;verticalAlign=bottom;endArrow=block;edgeStyle=elbowEdgeStyle;elbow=vertical;curved=0;rounded=0;" parent="1" target="QT0idfkxXLzTyoDSYEQH-4" edge="1">
          <mxGeometry x="-0.0015" relative="1" as="geometry">
            <mxPoint x="89.99857142857144" y="130" as="sourcePoint" />
            <Array as="points">
              <mxPoint x="180.07" y="130" />
            </Array>
            <mxPoint x="374.57" y="130" as="targetPoint" />
            <mxPoint as="offset" />
          </mxGeometry>
        </mxCell>
        <mxCell id="QT0idfkxXLzTyoDSYEQH-17" value="new AddOffering()" style="html=1;verticalAlign=bottom;endArrow=block;edgeStyle=elbowEdgeStyle;elbow=vertical;curved=0;rounded=0;dashed=1;" parent="1" source="QT0idfkxXLzTyoDSYEQH-4" edge="1">
          <mxGeometry relative="1" as="geometry">
            <mxPoint x="460" y="160" as="sourcePoint" />
            <Array as="points">
              <mxPoint x="180.07" y="160" />
            </Array>
            <mxPoint x="89.99857142857144" y="160" as="targetPoint" />
            <mxPoint as="offset" />
          </mxGeometry>
        </mxCell>
        <mxCell id="wPXZ8VNcLeqiLXzsY5N9-1" value="&lt;div&gt;-AddOffering is a UI class, which has a form to input Offering details&lt;/div&gt;&lt;div&gt;-An Admin can enter all the required information. If all form inputs are correctly inputted, the system will add the new Offering to the database and send a confirmation to the Admin. Otherwise, it will send an error message until all inputs have been correctly filled.&lt;/div&gt;&lt;div&gt;-This is repeated until the Admin has added all desired Offerings.&lt;/div&gt;" style="shape=note;size=20;whiteSpace=wrap;html=1;align=left;" parent="1" vertex="1">
          <mxGeometry x="530" y="110" width="370" height="140" as="geometry" />
        </mxCell>
        <mxCell id="9VZ1k0ZcQNu3xWcckRNs-1" value="enterNewOffering(classType, location, city, capacity, startTime, endTime)" style="html=1;verticalAlign=bottom;endArrow=block;edgeStyle=elbowEdgeStyle;elbow=vertical;curved=0;rounded=0;" parent="1" edge="1">
          <mxGeometry x="-0.0026" relative="1" as="geometry">
            <mxPoint x="90.99857142857144" y="240" as="sourcePoint" />
            <Array as="points">
              <mxPoint x="181.07" y="240" />
            </Array>
            <mxPoint x="470" y="240" as="targetPoint" />
            <mxPoint as="offset" />
          </mxGeometry>
        </mxCell>
        <mxCell id="9VZ1k0ZcQNu3xWcckRNs-2" value="confirmation" style="html=1;verticalAlign=bottom;endArrow=block;edgeStyle=elbowEdgeStyle;elbow=vertical;curved=0;rounded=0;dashed=1;" parent="1" edge="1">
          <mxGeometry relative="1" as="geometry">
            <mxPoint x="470" y="270" as="sourcePoint" />
            <Array as="points">
              <mxPoint x="180.07" y="270" />
            </Array>
            <mxPoint x="89.99857142857144" y="270" as="targetPoint" />
            <mxPoint as="offset" />
          </mxGeometry>
        </mxCell>
        <mxCell id="9VZ1k0ZcQNu3xWcckRNs-6" value="loop" style="shape=umlFrame;whiteSpace=wrap;html=1;pointerEvents=0;" parent="1" vertex="1">
          <mxGeometry x="20" y="170" width="470" height="130" as="geometry" />
        </mxCell>
        <mxCell id="9VZ1k0ZcQNu3xWcckRNs-7" value="*[more offerings}" style="text;html=1;align=center;verticalAlign=middle;resizable=0;points=[];autosize=1;strokeColor=none;fillColor=none;" parent="1" vertex="1">
          <mxGeometry x="230" y="270" width="110" height="30" as="geometry" />
        </mxCell>
        <mxCell id="YUQEajrGU9sA8-wg1mZE-2" value="&lt;u&gt;Enter New Offering Scenario&lt;/u&gt;&lt;div&gt;1. Admin logs in to the system.&lt;/div&gt;&lt;div&gt;2. Admin clicks on &quot;View, add, edit and delete offerings&quot;.&amp;nbsp;&lt;/div&gt;&lt;div&gt;&lt;span style=&quot;white-space: pre;&quot;&gt;&#x9;&lt;/span&gt;-A new OfferingsPage() is created.&lt;br&gt;&lt;/div&gt;&lt;div&gt;3. Admin clicks on &quot;Add&quot; (SSD starts here).&lt;/div&gt;&lt;div&gt;4. Admin enters Offering details.&lt;/div&gt;&lt;div&gt;5. System validates Offering details and adds the Offering to the database.&lt;/div&gt;&lt;div&gt;6. A confirmation is shown to the Admin, and the input fields are cleared.&lt;/div&gt;&lt;div&gt;7. Steps 4-6 are repeated until the Admin has entered all desired Offerings&lt;/div&gt;" style="shape=note;size=20;whiteSpace=wrap;html=1;align=left;" parent="1" vertex="1">
          <mxGeometry x="-410" y="100" width="400" height="140" as="geometry" />
        </mxCell>
        <mxCell id="ajoa_421g7RNQcH5PAfN-1" value="*validations*" style="html=1;verticalAlign=bottom;endArrow=block;edgeStyle=elbowEdgeStyle;elbow=vertical;curved=0;rounded=0;" parent="1" target="QT0idfkxXLzTyoDSYEQH-4" edge="1">
          <mxGeometry relative="1" as="geometry">
            <mxPoint x="89.99857142857144" y="200" as="sourcePoint" />
            <Array as="points">
              <mxPoint x="180.07" y="200" />
            </Array>
            <mxPoint x="374.57" y="200" as="targetPoint" />
            <mxPoint as="offset" />
          </mxGeometry>
        </mxCell>
        <mxCell id="ajoa_421g7RNQcH5PAfN-2" value="Note that &quot;validations&quot; is not a system operation, but rather just the necessary validations. These are a combination of if statements and method calls that check any necessary conditions BEFORE enterNewOffering is called." style="shape=note;size=20;whiteSpace=wrap;html=1;align=left;" parent="1" vertex="1">
          <mxGeometry x="530" y="260" width="330" height="140" as="geometry" />
        </mxCell>
      </root>
    </mxGraphModel>
  </diagram>
</mxfile>
